<svg width="27" height="27" viewBox="0 0 27 27" fill="none" xmlns="http://www.w3.org/2000/svg">
<path fill-rule="evenodd" clip-rule="evenodd" d="M18.1322 14.6201C20.8025 12.5145 21.8478 8.94405 20.7362 5.72614C19.6246 2.50822 16.6002 0.350006 13.2025 0.350006C9.80483 0.350006 6.78048 2.50822 5.66885 5.72614C4.55722 8.94405 5.6026 12.5145 8.2729 14.6201C3.72475 16.4464 0.548419 20.633 0.00813079 25.5136C-0.072592 26.2491 0.456867 26.9109 1.19071 26.9919C1.92455 27.0728 2.58489 26.5421 2.66561 25.8066C3.2697 20.4168 7.81752 16.3421 13.2291 16.3421C18.6407 16.3421 23.1885 20.4168 23.7926 25.8066C23.8674 26.4844 24.441 26.996 25.1213 26.9919H25.2675C25.9925 26.9082 26.5145 26.2542 26.4368 25.527C25.8939 20.6319 22.6997 16.4369 18.1322 14.6201ZM13.2002 13.6744C10.2649 13.6744 7.8853 11.2894 7.8853 8.34747C7.8853 5.4055 10.2649 3.02057 13.2002 3.02057C16.1356 3.02057 18.5152 5.4055 18.5152 8.34747C18.5152 9.76026 17.9552 11.1152 16.9585 12.1142C15.9617 13.1132 14.6099 13.6744 13.2002 13.6744Z" fill="white"/>
</svg>
