<svg width="56" height="25" viewBox="0 0 56 25" fill="none" xmlns="http://www.w3.org/2000/svg">
<path d="M0 5C0 2.23857 2.23858 0 5 0H51C53.7614 0 56 2.23858 56 5V15.4444C56 18.2059 53.7614 20.4444 51 20.4444H27.267C26.7586 20.4444 26.2533 20.522 25.7683 20.6743L15.1572 24.0081C13.269 24.6013 11.2126 23.9278 10.0412 22.3326V22.3326C9.16943 21.1456 7.78466 20.4444 6.31191 20.4444H5C2.23858 20.4444 0 18.2059 0 15.4444V5Z" fill="white"/>
<path d="M10.284 16.07C9.56533 16.07 8.87933 15.9487 8.226 15.706C7.582 15.454 7.078 15.132 6.714 14.74L7.036 14.208C7.38133 14.572 7.84333 14.8707 8.422 15.104C9.01 15.328 9.626 15.44 10.27 15.44C11.2033 15.44 11.908 15.2627 12.384 14.908C12.86 14.5533 13.098 14.0913 13.098 13.522C13.098 13.0833 12.972 12.7333 12.72 12.472C12.468 12.2107 12.1553 12.01 11.782 11.87C11.4087 11.73 10.9047 11.5853 10.27 11.436C9.55133 11.2587 8.97267 11.086 8.534 10.918C8.10467 10.75 7.736 10.4933 7.428 10.148C7.12933 9.79333 6.98 9.322 6.98 8.734C6.98 8.258 7.106 7.824 7.358 7.432C7.61 7.03067 7.99267 6.71333 8.506 6.48C9.02867 6.24667 9.67733 6.13 10.452 6.13C10.9933 6.13 11.5253 6.20933 12.048 6.368C12.5707 6.52667 13.0233 6.74133 13.406 7.012L13.14 7.586C12.748 7.31533 12.314 7.11 11.838 6.97C11.3713 6.83 10.9093 6.76 10.452 6.76C9.54667 6.76 8.86067 6.942 8.394 7.306C7.92733 7.67 7.694 8.14133 7.694 8.72C7.694 9.15867 7.82 9.50867 8.072 9.77C8.324 10.0313 8.63667 10.232 9.01 10.372C9.38333 10.512 9.892 10.6613 10.536 10.82C11.2547 10.9973 11.8287 11.17 12.258 11.338C12.6873 11.506 13.0513 11.7627 13.35 12.108C13.658 12.444 13.812 12.9013 13.812 13.48C13.812 13.956 13.6813 14.39 13.42 14.782C13.168 15.174 12.776 15.4867 12.244 15.72C11.712 15.9533 11.0587 16.07 10.284 16.07ZM24.4993 6.2V16H23.7853V11.338H17.2332V16H16.5192V6.2H17.2332V10.708H23.7853V6.2H24.4993ZM32.3596 16.07C31.3983 16.07 30.5303 15.8553 29.7556 15.426C28.9809 14.9873 28.3696 14.39 27.9216 13.634C27.4829 12.878 27.2636 12.0333 27.2636 11.1C27.2636 10.1667 27.4829 9.322 27.9216 8.566C28.3696 7.81 28.9809 7.21733 29.7556 6.788C30.5303 6.34933 31.3983 6.13 32.3596 6.13C33.3209 6.13 34.1889 6.34467 34.9636 6.774C35.7383 7.20333 36.3449 7.796 36.7836 8.552C37.2316 9.308 37.4556 10.1573 37.4556 11.1C37.4556 12.0427 37.2316 12.892 36.7836 13.648C36.3449 14.404 35.7383 14.9967 34.9636 15.426C34.1889 15.8553 33.3209 16.07 32.3596 16.07ZM32.3596 15.412C33.1809 15.412 33.9229 15.2253 34.5856 14.852C35.2483 14.4787 35.7709 13.9653 36.1536 13.312C36.5363 12.6493 36.7276 11.912 36.7276 11.1C36.7276 10.288 36.5363 9.55533 36.1536 8.902C35.7709 8.23933 35.2483 7.72133 34.5856 7.348C33.9229 6.97467 33.1809 6.788 32.3596 6.788C31.5383 6.788 30.7916 6.97467 30.1196 7.348C29.4569 7.72133 28.9343 8.23933 28.5516 8.902C28.1689 9.55533 27.9776 10.288 27.9776 11.1C27.9776 11.912 28.1689 12.6493 28.5516 13.312C28.9343 13.9653 29.4569 14.4787 30.1196 14.852C30.7916 15.2253 31.5383 15.412 32.3596 15.412ZM43.7261 6.2C44.9581 6.2 45.9241 6.494 46.6241 7.082C47.3241 7.66067 47.6741 8.468 47.6741 9.504C47.6741 10.5307 47.3241 11.338 46.6241 11.926C45.9241 12.5047 44.9581 12.794 43.7261 12.794H40.9261V16H40.2121V6.2H43.7261ZM43.7261 12.15C44.7714 12.15 45.5694 11.9213 46.1201 11.464C46.6707 11.0067 46.9461 10.3533 46.9461 9.504C46.9461 8.65467 46.6707 8.00133 46.1201 7.544C45.5694 7.07733 44.7714 6.844 43.7261 6.844H40.9261V12.15H43.7261Z" fill="black"/>
<path d="M39 14.5H45" stroke="black" stroke-width="0.7"/>
<path d="M10 5V17" stroke="black" stroke-width="0.7"/>
</svg>
